<svg xmlns="http://www.w3.org/2000/svg" viewBox="0 0 422.26 588.79"><defs><style>.cls-1{fill:none;stroke:#fff;stroke-width:12px;}.cls-1,.cls-2,.cls-3,.cls-4,.cls-5,.cls-6,.cls-7{stroke-miterlimit:10;}.cls-2,.cls-6,.cls-7{fill:#1d1d1b;}.cls-2,.cls-3,.cls-4,.cls-6,.cls-7{stroke:#1d1d1b;}.cls-2{stroke-width:6px;}.cls-3,.cls-4,.cls-8{fill:#d5a940;}.cls-3{stroke-width:4px;}.cls-4,.cls-5,.cls-6{stroke-width:2px;}.cls-5{fill:#eace76;stroke:#eace76;}.cls-7{stroke-width:0.25px;}.cls-9{fill:#f7e6a4;}</style></defs><g id="Capa_2" data-name="Capa 2"><g id="Capa_1-2" data-name="Capa 1"><path class="cls-1" d="M379,13.77A454.29,454.29,0,0,0,291.08,6C244.62,6.47,190.26,7,134,37.61c-20.41,11.09-78.88,44-109.06,116.2-6.4,15.31-29.27,72.32-11.14,141.24a212.07,212.07,0,0,0,33.42,70.32l22.36,3.54L18.44,455.36A379.55,379.55,0,0,1,100,414.45l-4.79,12.9a720.07,720.07,0,0,0,100.85,90A713.43,713.43,0,0,0,296.21,579q-.52-52.74-1-105.48a277.39,277.39,0,0,0,120.21,54q-4.1-36.06-8.2-72.11L396.62,361.2l-12.9-1.79,1.18-11.32h19.93c1.47-14.76,4.3-61.78-24.93-108.79a169.59,169.59,0,0,0-71.23-63.44q3.81-10.12,7.63-20.26L304,154.41A908.27,908.27,0,0,1,348,65C358.23,46.74,368.66,29.66,379,13.77Z"/><path class="cls-2" d="M361.74,21.52c-5.63-1.21-13.23-2.72-22.28-4.18,0,0-19.82-3.19-38.12-4.47C187.49,4.92,106.68,67.1,106.68,67.1,93.51,77.24,68.39,97,47.76,132.06,18,182.69,17.66,231.16,17.86,243.5A212,212,0,0,0,53,356.73l29.9,8Q74.66,380.47,65.14,397q-9.36,16.13-18.7,30.84L119,396.06q-5.64,14.54-11.29,29.05C148.47,472,229.9,534.83,284.93,562q-.45-54.82-.88-109.65c23.91,23.16,81.3,54.71,118.44,62.27q-3.33-35.32-7.29-71.55-4-36.54-8.45-72l-14.46-2.27q1.54-14.74,3.08-29.5l19.79-1.12a165.5,165.5,0,0,0-18-81.34A161.44,161.44,0,0,0,345,213.71,156.73,156.73,0,0,0,295.77,182q3-8.49,6-17l-14-1.07Z"/><path class="cls-3" d="M92.21,321.9a45.13,45.13,0,0,1,1.08,57.18c7.22-1.95,16.79-4.45,28.15-7.15,12.38-3,15.32-3.4,17.59-1.79,9.26,6.56-3.43,39.13-5.28,43.8a558.16,558.16,0,0,0,60.68,61.68,552.53,552.53,0,0,0,77.4,56.32l-9.68-97.44q1.77-30.84,3.52-61.68-19.5-6.74-40.45-15.2c-13-5.26-25.27-10.66-36.94-16.09l6.15-43.8q37.56,8.67,75.64,17.88,27.45,6.64,54.53,13.41a54.21,54.21,0,0,1-4,32.68,51.21,51.21,0,0,1-11.41,15.59l33,25,18.47-26.82a164.65,164.65,0,0,1-7.92-24.13,166.83,166.83,0,0,1-4.4-28.61l28.3-11.61c.62-13,.4-45.33-19.5-77.78a131.59,131.59,0,0,0-37.25-39.29,296.07,296.07,0,0,1,10,31.25,299.32,299.32,0,0,1,8.8,53.18,264.76,264.76,0,0,0-14.07-42.46,263.08,263.08,0,0,0-27.81-49.37A1000.9,1000.9,0,0,0,92.21,321.9Z"/><path class="cls-4" d="M71.14,327.06A28.59,28.59,0,0,1,76,312.31a28.3,28.3,0,0,1,15.61-11.18,66.68,66.68,0,0,1,2.73-46.53l-18.78-8.44,22.2-.45c.37-1.08.78-2.22,1.23-3.44,5.53-14.86,17.23-39.18,41.43-59.13a131.2,131.2,0,0,1,29.46-18.33l-14.07-34L182,159.18q.08-7.25.14-14.48l11.88,13.41a243.49,243.49,0,0,1,69.48-10.28q21.54-58.56,43.09-117.1A242.69,242.69,0,0,0,187.89,45c-10.29,4-53,21.43-92.35,63.47a260.4,260.4,0,0,0-25.06,31.28l21.11,19.67L64.32,148.94A164.89,164.89,0,0,0,54,168.54a187.67,187.67,0,0,0-9.43,27.56c-13.2,53.83,7.92,100.56,7.92,100.56A142.48,142.48,0,0,0,71.14,327.06Z"/><path class="cls-5" d="M97.85,186.38,56,169.9q1.17-2.62,2.49-5.36,1.53-3.15,3.08-6Z"/><path class="cls-5" d="M46.63,197.88l24.73,1.79L49.55,187.42q-.73,2.28-1.43,4.72C47.56,194.11,47.06,196,46.63,197.88Z"/><path class="cls-5" d="M132.48,156.32,96,111.69l-4.43,4.86-3.63,4.3Z"/><path class="cls-5" d="M144.8,116.54,128.33,82c-2,1.54-4,3.14-6,4.82-1.6,1.3-3.15,2.61-4.66,3.91Z"/><path class="cls-5" d="M166.64,57.45q6.06,29.83,12.13,59.65L153.91,64.61l6.35-3.84Z"/><path class="cls-5" d="M189.77,46.93c2.85-1.08,5.81-2.15,8.89-3.18q3.9-1.3,7.63-2.41,6.66,54,13.33,108-2.73.44-5.67,1.09c-.89.2-1.76.41-2.61.62Z"/><path class="cls-5" d="M242.54,33.5Q239.11,90.25,235.68,147c1.33-.17,2.69-.33,4.08-.47,1.56-.15,3.08-.29,4.56-.39q1.23-5.49,2.45-11,11.55-51.94,23.12-103.89c-4.42.09-9.1.31-14,.72C251.21,32.38,246.75,32.9,242.54,33.5Z"/><path class="cls-6" d="M107.49,321.27q6.15,16.1,12.31,32.18l17-8.94-15.24,17.88,34.59-13.7c-8.42-15.52-7-26.62-5.86-31.59.5-2.14,1.52-5.55,8.21-17.28,5.78-10.14,11.08-18.21,14.91-23.77Z"/><path class="cls-7" d="M217.5,483.81c2.16,1,12.71,5.65,22.28.6,5.21-2.75,7.84-7.1,10-10.73,6-10.17,6.08-20.7,5.63-26.45L260.3,513Z"/><path class="cls-8" d="M156.32,204.7c.8-1,2-2.4,3.52-4,11.33-12,25.12-17.72,46.32-23.09a340.92,340.92,0,0,1,59.8-9.54q-4,10.57-7.91,21.16Z"/><path class="cls-8" d="M104.82,303.27A176.91,176.91,0,0,1,120.21,276c7.23-10.51,15.7-22.62,30.56-33.3A105.15,105.15,0,0,1,180.23,228l-3.3,7.15c-.66,3.07-2.21,11.35,1.1,13.41,2.54,1.57,6.58-1.33,13.42-5.81,9-5.89,18.39-11.09,27.51-16.76a238,238,0,0,1,23.28-12.74,113.69,113.69,0,0,0-50.13-2.9c-34.52,5.89-75.5,30.07-85.31,68.83A74.54,74.54,0,0,0,104.82,303.27Z"/><path class="cls-8" d="M278.1,165.37q-4.11,12.52-8.21,25h6.74l13.19-6L296,166.57Z"/><path class="cls-9" d="M201.26,350.31a148.36,148.36,0,0,1,60.29,50.82q.76-13.23,1.54-26.45C244,367.35,220.37,358.21,201.26,350.31Z"/><path class="cls-9" d="M196.18,267.42q-.88,7.45-1.76,14.9l121,22.06Z"/></g></g></svg>